<svg width="19" height="19" viewBox="0 0 19 19" fill="none" xmlns="http://www.w3.org/2000/svg">
<path d="M7.41574 16.8117C7.78494 16.8117 8.08422 16.5124 8.08422 16.1432C8.08422 15.774 7.78494 15.4747 7.41574 15.4747C7.04655 15.4747 6.74726 15.774 6.74726 16.1432C6.74726 16.5124 7.04655 16.8117 7.41574 16.8117Z" stroke="white" stroke-width="1.5" stroke-linecap="round" stroke-linejoin="round"/>
<path d="M14.7704 16.8117C15.1396 16.8117 15.4389 16.5124 15.4389 16.1432C15.4389 15.774 15.1396 15.4747 14.7704 15.4747C14.4012 15.4747 14.102 15.774 14.102 16.1432C14.102 16.5124 14.4012 16.8117 14.7704 16.8117Z" stroke="white" stroke-width="1.5" stroke-linecap="round" stroke-linejoin="round"/>
<path d="M2.06797 2.77277H4.74189L6.53341 11.7237C6.59454 12.0315 6.76197 12.3079 7.00639 12.5047C7.25081 12.7014 7.55665 12.806 7.87037 12.8H14.368C14.6817 12.806 14.9876 12.7014 15.232 12.5047C15.4764 12.3079 15.6438 12.0315 15.705 11.7237L16.7745 6.11516H5.41037" stroke="white" stroke-width="1.5" stroke-linecap="round" stroke-linejoin="round"/>
</svg>
