<svg width="42" height="31" viewBox="0 0 42 31" fill="none" xmlns="http://www.w3.org/2000/svg">
<g clip-path="url(#clip0_6_157)">
<path d="M9.52877 28.6141V26.837C9.52877 26.1558 9.11442 25.7115 8.40409 25.7115C8.04892 25.7115 7.66416 25.83 7.39779 26.215C7.19061 25.8892 6.89464 25.7115 6.45068 25.7115C6.15471 25.7115 5.85874 25.8004 5.62197 26.1262V25.7708H5.00043V28.6141H5.62197V27.0443C5.62197 26.5408 5.88834 26.3039 6.3027 26.3039C6.71705 26.3039 6.92423 26.5705 6.92423 27.0443V28.6141H7.54577V27.0443C7.54577 26.5408 7.84174 26.3039 8.2265 26.3039C8.64086 26.3039 8.84804 26.5705 8.84804 27.0443V28.6141H9.52877ZM18.7334 25.7708H17.7272V24.9118H17.1056V25.7708H16.5433V26.3335H17.1056V27.6367C17.1056 28.2883 17.372 28.6734 18.0823 28.6734C18.3487 28.6734 18.6447 28.5845 18.8518 28.466L18.6743 27.9329C18.4967 28.0514 18.2895 28.081 18.1415 28.081C17.8455 28.081 17.7272 27.9033 17.7272 27.6071V26.3335H18.7334V25.7708ZM24.0017 25.7115C23.6466 25.7115 23.4098 25.8892 23.2618 26.1262V25.7708H22.6403V28.6141H23.2618V27.0147C23.2618 26.5408 23.469 26.2743 23.8537 26.2743C23.9721 26.2743 24.1201 26.3039 24.2385 26.3335L24.4161 25.7411C24.2977 25.7115 24.1201 25.7115 24.0017 25.7115ZM16.0401 26.0077C15.7441 25.8004 15.3298 25.7115 14.8858 25.7115C14.1755 25.7115 13.702 26.0669 13.702 26.6297C13.702 27.1036 14.0571 27.3702 14.6787 27.459L14.9746 27.4886C15.3002 27.5479 15.4778 27.6367 15.4778 27.7848C15.4778 27.9921 15.241 28.1402 14.8266 28.1402C14.4123 28.1402 14.0867 27.9921 13.8795 27.8441L13.5836 28.3179C13.9091 28.5549 14.3531 28.6734 14.797 28.6734C15.6258 28.6734 16.0993 28.2883 16.0993 27.7552C16.0993 27.2517 15.7145 26.9851 15.1226 26.8963L14.8266 26.8666C14.5603 26.837 14.3531 26.7778 14.3531 26.6001C14.3531 26.3927 14.5603 26.2743 14.8858 26.2743C15.241 26.2743 15.5962 26.4224 15.7737 26.5112L16.0401 26.0077ZM32.5553 25.7115C32.2001 25.7115 31.9633 25.8892 31.8153 26.1262V25.7708H31.1938V28.6141H31.8153V27.0147C31.8153 26.5408 32.0225 26.2743 32.4073 26.2743C32.5257 26.2743 32.6737 26.3039 32.792 26.3335L32.9696 25.7411C32.8512 25.7115 32.6737 25.7115 32.5553 25.7115ZM24.6233 27.1924C24.6233 28.0514 25.2152 28.6734 26.1327 28.6734C26.5471 28.6734 26.843 28.5845 27.139 28.3476L26.843 27.8441C26.6063 28.0218 26.3695 28.1106 26.1031 28.1106C25.6 28.1106 25.2448 27.7552 25.2448 27.1924C25.2448 26.6593 25.6 26.3039 26.1031 26.2743C26.3695 26.2743 26.6063 26.3631 26.843 26.5408L27.139 26.0373C26.843 25.8004 26.5471 25.7115 26.1327 25.7115C25.2152 25.7115 24.6233 26.3335 24.6233 27.1924ZM30.3651 27.1924V25.7708H29.7436V26.1262C29.5364 25.8596 29.2404 25.7115 28.8556 25.7115C28.0565 25.7115 27.435 26.3335 27.435 27.1924C27.435 28.0514 28.0565 28.6734 28.8556 28.6734C29.27 28.6734 29.566 28.5253 29.7436 28.2587V28.6141H30.3651V27.1924ZM28.0861 27.1924C28.0861 26.6889 28.4117 26.2743 28.9444 26.2743C29.4476 26.2743 29.8027 26.6593 29.8027 27.1924C29.8027 27.696 29.4476 28.1106 28.9444 28.1106C28.4117 28.081 28.0861 27.696 28.0861 27.1924ZM20.6573 25.7115C19.8285 25.7115 19.2366 26.3039 19.2366 27.1924C19.2366 28.081 19.8285 28.6734 20.6869 28.6734C21.1012 28.6734 21.5156 28.5549 21.8411 28.2883L21.5452 27.8441C21.3084 28.0218 21.0124 28.1402 20.7165 28.1402C20.3317 28.1402 19.9469 27.9625 19.8581 27.459H21.9595V27.2221C21.9891 26.3039 21.4564 25.7115 20.6573 25.7115ZM20.6573 26.2447C21.042 26.2447 21.3084 26.4816 21.3676 26.9259H19.8877C19.9469 26.5408 20.2133 26.2447 20.6573 26.2447ZM36.0773 27.1924V24.6453H35.4558V26.1262C35.2486 25.8596 34.9526 25.7115 34.5679 25.7115C33.7687 25.7115 33.1472 26.3335 33.1472 27.1924C33.1472 28.0514 33.7687 28.6734 34.5679 28.6734C34.9822 28.6734 35.2782 28.5253 35.4558 28.2587V28.6141H36.0773V27.1924ZM33.7983 27.1924C33.7983 26.6889 34.1239 26.2743 34.6567 26.2743C35.1598 26.2743 35.515 26.6593 35.515 27.1924C35.515 27.696 35.1598 28.1106 34.6567 28.1106C34.1239 28.081 33.7983 27.696 33.7983 27.1924ZM13.0212 27.1924V25.7708H12.3997V26.1262C12.1925 25.8596 11.8965 25.7115 11.5118 25.7115C10.7127 25.7115 10.0911 26.3335 10.0911 27.1924C10.0911 28.0514 10.7127 28.6734 11.5118 28.6734C11.9261 28.6734 12.2221 28.5253 12.3997 28.2587V28.6141H13.0212V27.1924ZM10.7127 27.1924C10.7127 26.6889 11.0382 26.2743 11.571 26.2743C12.0741 26.2743 12.4293 26.6593 12.4293 27.1924C12.4293 27.696 12.0741 28.1106 11.571 28.1106C11.0382 28.081 10.7127 27.696 10.7127 27.1924Z" fill="white"/>
<path d="M25.156 4.17871H15.8329V20.9427H25.156V4.17871Z" fill="#FF5F00"/>
<path d="M16.4248 12.5608C16.4248 9.15471 18.0231 6.13363 20.4796 4.17882C18.6742 2.75713 16.3952 1.89819 13.9091 1.89819C8.01927 1.89819 3.25415 6.66676 3.25415 12.5608C3.25415 18.4549 8.01927 23.2235 13.9091 23.2235C16.3952 23.2235 18.6742 22.3645 20.4796 20.9429C18.0231 19.0177 16.4248 15.9669 16.4248 12.5608Z" fill="#EB001B"/>
<path d="M37.7348 12.5608C37.7348 18.4549 32.9696 23.2235 27.0798 23.2235C24.5937 23.2235 22.3147 22.3645 20.5093 20.9429C22.9954 18.988 24.5641 15.9669 24.5641 12.5608C24.5641 9.15471 22.9658 6.13363 20.5093 4.17882C22.3147 2.75713 24.5937 1.89819 27.0798 1.89819C32.9696 1.89819 37.7348 6.69638 37.7348 12.5608Z" fill="#F79E1B"/>
</g>
<defs>
<clipPath id="clip0_6_157">
<rect width="41.7373" height="30.6074" fill="white" transform="translate(0.176208 0.350098)"/>
</clipPath>
</defs>
</svg>
