<svg width="54" height="54" viewBox="0 0 54 54" fill="none" xmlns="http://www.w3.org/2000/svg">
<path d="M31 18H16V31H31V18Z" stroke="#008000" stroke-width="2" stroke-linecap="round" stroke-linejoin="round"/>
<path d="M31 23H35L38 26V31H31V23Z" stroke="#008000" stroke-width="2" stroke-linecap="round" stroke-linejoin="round"/>
<path d="M20.5 36C21.8807 36 23 34.8807 23 33.5C23 32.1193 21.8807 31 20.5 31C19.1193 31 18 32.1193 18 33.5C18 34.8807 19.1193 36 20.5 36Z" stroke="#008000" stroke-width="2" stroke-linecap="round" stroke-linejoin="round"/>
<path d="M33.5 36C34.8807 36 36 34.8807 36 33.5C36 32.1193 34.8807 31 33.5 31C32.1193 31 31 32.1193 31 33.5C31 34.8807 32.1193 36 33.5 36Z" stroke="#008000" stroke-width="2" stroke-linecap="round" stroke-linejoin="round"/>
<rect x="1" y="1" width="52" height="52" rx="26" stroke="#008000" stroke-width="2"/>
</svg>
